<svg width="24" height="24" viewBox="0 0 24 24" fill="none" xmlns="http://www.w3.org/2000/svg">
<g clip-path="url(#clip0_78_32)">
<path d="M23.9999 14.8052V10.0134H21.0325L14.0083 3.52308C14.0872 3.30075 14.1306 3.06174 14.1306 2.81266C14.1306 1.6378 13.1747 0.681976 11.9999 0.681976C10.825 0.681976 9.8692 1.6378 9.8692 2.81266C9.8692 3.06171 9.91255 3.30075 9.99142 3.52308L2.96727 10.0134H-0.00012207V14.8052H0.838789L3.75363 23.3181H20.2461L23.1609 14.8052H23.9999V14.8052ZM15.9029 17.3536H12.8411V14.8284H16.1523L15.9029 17.3536ZM11.1586 21.6356H8.51968L8.26298 19.0361H11.1586V21.6356ZM8.09686 17.3536L7.84751 14.8284H11.1586V17.3536H8.09686ZM12.4481 2.81266C12.4481 2.94258 12.3922 3.05941 12.3036 3.14133C12.2236 3.21526 12.1171 3.26086 11.9999 3.26086C11.8826 3.26086 11.7761 3.21526 11.6962 3.14133C11.6076 3.05939 11.5517 2.94258 11.5517 2.81266C11.5517 2.68274 11.6076 2.5659 11.6962 2.48398C11.7761 2.41005 11.8826 2.36445 11.9999 2.36445C12.1171 2.36445 12.2236 2.41005 12.3036 2.48398C12.3922 2.56593 12.4481 2.68274 12.4481 2.81266ZM11.1335 4.75854C11.3984 4.87695 11.6914 4.94336 11.9999 4.94336C12.3083 4.94336 12.6013 4.87695 12.8662 4.75854L18.5533 10.0134H5.44644L11.1335 4.75854ZM1.68235 11.6959H22.3174V13.1227H1.68235V11.6959ZM6.15687 14.8284L6.40622 17.3536H3.48977L2.62513 14.8284H6.15687ZM4.95593 21.6356L4.06585 19.0361H6.57236L6.82904 21.6356H4.95593ZM12.8411 19.0361H15.7368L15.4801 21.6356H12.8411V19.0361ZM19.0438 21.6356H17.1707L17.4274 19.0361H19.9339L19.0438 21.6356ZM20.51 17.3536H17.5935L17.8429 14.8284H21.3746L20.51 17.3536Z" fill="#0C0D36"/>
</g>
<defs>
<clipPath id="clip0_78_32">
<rect width="24" height="24" fill="white"/>
</clipPath>
</defs>
</svg>
